<svg xmlns="http://www.w3.org/2000/svg" version="1.1" xmlns:xlink="http://www.w3.org/1999/xlink" xmlns:svgjs="http://svgjs.dev/svgjs" width="2000" height="1500" viewBox="0 0 2000 1500"><rect width="2000" height="1500" fill="#ffffff"></rect><g transform="matrix(0.75,0,0,0.75,250.25491573033696,442.21356164383565)"><svg viewBox="0 0 356 146" data-background-color="#ffffff" preserveAspectRatio="xMidYMid meet" height="820" width="2000" xmlns="http://www.w3.org/2000/svg" xmlns:xlink="http://www.w3.org/1999/xlink"><g id="tight-bounds" transform="matrix(1,0,0,1,-0.06049999999996203,0.06799999999998363)"><svg viewBox="0 0 356.12052 145.8638500461684" height="145.8638500461684" width="356.12052"><g><svg viewBox="0 0 356.12052 145.8638500461684" height="145.8638500461684" width="356.12052"><g><svg viewBox="0 0 356.12052 145.8638500461684" height="145.8638500461684" width="356.12052"><g><path d="M0 145.864v-145.864h356.121v145.864z" fill="#ffffff" stroke="transparent" stroke-width="0" rx="0%" data-fill-palette-color="tertiary"></path><path d="M3.283 142.581v-139.298h349.554v139.298z" fill="#db3022" stroke="transparent" stroke-width="0" rx="0%" data-fill-palette-color="quaternary"></path><path d="M9.85 136.014v-126.164h336.421v126.164z" fill="#ffffff" stroke="transparent" stroke-width="0" data-fill-palette-color="tertiary"></path></g><g transform="matrix(1,0,0,1,19.69974,19.69974)" id="textblocktransform"><svg viewBox="0 0 316.72104 106.46437004616841" height="106.46437004616841" width="316.72104" id="textblock"><g><svg viewBox="0 0 316.72104 67.53942817013989" height="67.53942817013989" width="316.72104"><g transform="matrix(1,0,0,1,0,0)"><svg width="316.72104" viewBox="2.95 -36.55 175.14000000000001 37.349999999999994" height="67.53942817013989" data-palette-color="#db3022"><path d="M29.7-7L31.75-2.7Q30.85-2.1 29.3-1.35 27.75-0.6 25.68-0.1 23.6 0.4 21.15 0.4L21.15 0.4Q16.95 0.35 13.58-1.1 10.2-2.55 7.85-5.05 5.5-7.55 4.23-10.83 2.95-14.1 2.95-17.8L2.95-17.8Q2.95-21.85 4.28-25.28 5.6-28.7 8-31.23 10.4-33.75 13.68-35.15 16.95-36.55 20.85-36.55L20.85-36.55Q24.1-36.55 26.75-35.68 29.4-34.8 31.3-33.6L31.3-33.6 29.35-29.1Q27.85-30.1 25.73-31 23.6-31.9 21-31.9L21-31.9Q18.35-31.9 16-30.85 13.65-29.8 11.85-27.9 10.05-26 9.03-23.48 8-20.95 8-18.05L8-18.05Q8-15.1 8.93-12.58 9.85-10.05 11.58-8.2 13.3-6.35 15.75-5.3 18.2-4.25 21.25-4.25L21.25-4.25Q24-4.25 26.15-5.1 28.3-5.95 29.7-7L29.7-7ZM36.95-10.55L36.95-10.55Q36.95-13.65 38.42-16.15 39.9-18.65 42.5-20.1 45.1-21.55 48.4-21.55L48.4-21.55Q51.8-21.55 54.35-20.1 56.9-18.65 58.3-16.15 59.7-13.65 59.7-10.55L59.7-10.55Q59.7-7.45 58.3-4.93 56.9-2.4 54.32-0.95 51.75 0.5 48.35 0.5L48.35 0.5Q45.05 0.5 42.47-0.88 39.9-2.25 38.42-4.73 36.95-7.2 36.95-10.55ZM41.6-10.5L41.6-10.5Q41.6-8.5 42.5-6.88 43.4-5.25 44.92-4.3 46.45-3.35 48.3-3.35L48.3-3.35Q50.25-3.35 51.77-4.3 53.3-5.25 54.15-6.88 55-8.5 55-10.5L55-10.5Q55-12.5 54.15-14.13 53.3-15.75 51.77-16.73 50.25-17.7 48.3-17.7L48.3-17.7Q46.4-17.7 44.87-16.7 43.35-15.7 42.47-14.08 41.6-12.45 41.6-10.5ZM72.55 0.8L72.55 0.8Q69.75 0.8 67.92-0.93 66.1-2.65 66-5.4L66-5.4 66-20.7 70.65-20.7 70.65-7.05Q70.75-5.35 71.62-4.3 72.5-3.25 74.4-3.2L74.4-3.2Q76.15-3.2 77.52-4.23 78.9-5.25 79.75-7.03 80.6-8.8 80.6-11.05L80.6-11.05 80.6-20.7 85.25-20.7 85.25 0 81 0 80.6-5.1 80.85-4.2Q80.25-2.75 79.02-1.63 77.8-0.5 76.15 0.15 74.5 0.8 72.55 0.8ZM95.29-20.6L95.29-29.8 99.94-29.8 99.94-20.6 105.64-20.6 105.64-16.95 99.94-16.95 99.94 0 95.29 0 95.29-16.95 91.49-16.95 91.49-20.6 95.29-20.6ZM117.79 0.8L117.79 0.8Q114.99 0.8 113.17-0.93 111.34-2.65 111.24-5.4L111.24-5.4 111.24-20.7 115.89-20.7 115.89-7.05Q115.99-5.35 116.87-4.3 117.74-3.25 119.64-3.2L119.64-3.2Q121.39-3.2 122.77-4.23 124.14-5.25 124.99-7.03 125.84-8.8 125.84-11.05L125.84-11.05 125.84-20.7 130.49-20.7 130.49 0 126.24 0 125.84-5.1 126.09-4.2Q125.49-2.75 124.27-1.63 123.04-0.5 121.39 0.15 119.74 0.8 117.79 0.8ZM138.54-20.7L142.69-20.7 143.14-14.7 142.89-15.5Q143.69-17.4 145.21-18.73 146.74-20.05 148.41-20.78 150.09-21.5 151.34-21.5L151.34-21.5 151.09-16.9Q148.74-17.05 146.96-16 145.19-14.95 144.16-13.2 143.14-11.45 143.14-9.45L143.14-9.45 143.14 0 138.54 0 138.54-20.7ZM165.44 0.5L165.44 0.5Q162.54 0.5 160.16-0.75 157.79-2 156.41-4.42 155.04-6.85 155.04-10.35L155.04-10.35Q155.04-13.8 156.49-16.32 157.94-18.85 160.36-20.2 162.79-21.55 165.69-21.55L165.69-21.55Q168.59-21.55 170.59-20.23 172.59-18.9 173.64-17.1L173.64-17.1 173.34-16.3 173.79-20.7 178.09-20.7 178.09 0 173.44 0 173.44-5.4 173.94-4.2Q173.74-3.7 173.06-2.93 172.39-2.15 171.26-1.35 170.14-0.55 168.69-0.03 167.24 0.5 165.44 0.5ZM166.69-3.35L166.69-3.35Q168.44-3.35 169.84-4 171.24-4.65 172.16-5.83 173.09-7 173.44-8.65L173.44-8.65 173.44-12.7Q173.04-14.2 172.04-15.33 171.04-16.45 169.64-17.07 168.24-17.7 166.54-17.7L166.54-17.7Q164.69-17.7 163.14-16.8 161.59-15.9 160.66-14.3 159.74-12.7 159.74-10.55L159.74-10.55Q159.74-8.55 160.69-6.9 161.64-5.25 163.24-4.3 164.84-3.35 166.69-3.35Z" opacity="1" transform="matrix(1,0,0,1,0,0)" fill="#db3022" class="wordmark-text-0" data-fill-palette-color="quaternary" id="text-0"></path></svg></g></svg></g><g transform="matrix(1,0,0,1,0,74.10600817013989)"><svg viewBox="0 0 316.72104 32.358361876028525" height="32.358361876028525" width="316.72104"><g transform="matrix(1,0,0,1,0,0)"><svg width="316.72104" viewBox="2.3 -36.75 364.55 37.25" height="32.358361876028525" data-palette-color="#db3022"><path d="M2.3 0L2.3 0 2.3-23.85Q3.95-24.6 5.88-25.05 7.8-25.5 9.85-25.5L9.85-25.5Q12.8-25.5 14.15-24.2 15.5-22.9 15.88-20.5 16.25-18.1 16.25-14.75L16.25-14.75 16.25-0.8Q16.25-0.4 16.05-0.25 15.85-0.1 15-0.05 14.15 0 12.2 0L12.2 0 12.2-18.6Q12.2-19.85 12.08-20.58 11.95-21.3 11.43-21.63 10.9-21.95 9.75-21.95L9.75-21.95Q8.9-21.95 8.08-21.75 7.25-21.55 6.35-21.1L6.35-21.1 6.35-0.8Q6.35-0.4 6.15-0.25 5.95-0.1 5.13-0.05 4.3 0 2.3 0ZM12.2 0L12.2 0 12.2-21.8Q12.65-22.9 13.98-23.73 15.3-24.55 17.07-25.03 18.85-25.5 20.5-25.5L20.5-25.5Q23-25.5 24.2-24.68 25.4-23.85 25.75-22.28 26.1-20.7 26.1-18.45L26.1-18.45 26.1-0.8Q26.1-0.4 25.9-0.25 25.7-0.1 24.85-0.05 24 0 22.05 0L22.05 0 22.05-18.5Q22.05-20.3 21.58-21.1 21.1-21.9 19.6-21.9L19.6-21.9Q18.8-21.9 17.95-21.7 17.1-21.5 16.25-20.95L16.25-20.95 16.25-0.8Q16.25-0.4 16.1-0.25 15.95-0.1 15.1-0.05 14.25 0 12.2 0ZM38.1 0.5L38.1 0.5Q36.4 0.5 34.92 0.03 33.45-0.45 32.37-1.7 31.3-2.95 30.72-5.25 30.15-7.55 30.15-11.2L30.15-11.2Q30.15-15.9 30.9-18.75 31.65-21.6 32.9-23.05 34.15-24.5 35.75-25 37.35-25.5 39-25.5L39-25.5Q42.15-25.5 43.75-23.5 45.35-21.5 45.35-17.45L45.35-17.45Q45.35-15.8 45.22-14.05 45.1-12.3 44.75-10.95L44.75-10.95Q43.05-10.6 40.95-10.45 38.85-10.3 36.95-10.23 35.05-10.15 33.82-10.15 32.6-10.15 32.6-10.15L32.6-10.15 32.65-13.45Q32.65-13.45 33.6-13.43 34.55-13.4 35.92-13.43 37.3-13.45 38.72-13.58 40.15-13.7 41.15-14L41.15-14Q41.3-14.7 41.35-15.5 41.4-16.3 41.4-17L41.4-17Q41.35-19.7 40.77-20.83 40.2-21.95 38.55-21.95L38.55-21.95Q37.7-21.95 36.92-21.48 36.15-21 35.55-19.83 34.95-18.65 34.62-16.6 34.3-14.55 34.3-11.35L34.3-11.35Q34.3-9 34.57-7.45 34.85-5.9 35.42-5.05 36-4.2 36.87-3.83 37.75-3.45 39-3.45L39-3.45Q40.5-3.45 41.97-3.85 43.45-4.25 44.65-5L44.65-5Q44.9-4.4 44.97-3.63 45.05-2.85 45.05-2.25L45.05-2.25Q45.05-1.5 44.1-0.85 43.15-0.2 41.57 0.15 40 0.5 38.1 0.5ZM48.9 0L48.9 0 48.9-23.8Q49.9-24.25 51.25-24.63 52.6-25 54.05-25.25 55.5-25.5 56.85-25.5L56.85-25.5Q59.45-25.5 61-24.83 62.55-24.15 63.2-22.7 63.84-21.25 63.84-18.8L63.84-18.8 63.84-0.8Q63.84-0.4 63.65-0.25 63.45-0.1 62.6-0.05 61.75 0 59.65 0L59.65 0 59.65-17.6Q59.65-19.95 59.1-20.95 58.55-21.95 56.7-21.95L56.7-21.95Q55.85-21.95 54.8-21.75 53.75-21.55 52.95-21.05L52.95-21.05 52.95-0.8Q52.95-0.4 52.77-0.25 52.6-0.1 51.75-0.05 50.9 0 48.9 0ZM82.24 0.5L82.24 0.5Q80.84 0.5 79.57 0.28 78.29 0.05 77.29-0.73 76.29-1.5 75.69-3 75.09-4.5 75.09-7.1L75.09-7.1Q75.09-9.7 75.64-11.33 76.19-12.95 77.14-13.83 78.09-14.7 79.29-15 80.49-15.3 81.74-15.3L81.74-15.3Q82.54-15.3 83.62-15.15 84.69-15 85.44-14.65L85.44-14.65Q85.44-14.65 85.44-15.35 85.44-16.05 85.44-16.98 85.44-17.9 85.44-18.6L85.44-18.6Q85.44-19.8 85.07-20.43 84.69-21.05 84.02-21.33 83.34-21.6 82.34-21.6L82.34-21.6Q80.39-21.6 78.59-21.25 76.79-20.9 75.69-20.45L75.69-20.45Q75.34-21.05 75.24-21.68 75.14-22.3 75.14-22.8L75.14-22.8Q75.14-23.15 75.27-23.55 75.39-23.95 75.69-24.15L75.69-24.15Q76.34-24.55 78.39-25.03 80.44-25.5 83.29-25.5L83.29-25.5Q86.54-25.5 88.02-24.15 89.49-22.8 89.49-19.4L89.49-19.4 89.49-16.75Q89.49-13.9 89.47-11.03 89.44-8.15 89.39-5.63 89.34-3.1 89.19-1.2L89.19-1.2Q88.19-0.6 86.44-0.05 84.69 0.5 82.24 0.5ZM82.64-2.9L82.64-2.9Q83.44-2.9 84.19-3.15 84.94-3.4 85.24-3.75L85.24-3.75Q85.34-4.55 85.37-5.95 85.39-7.35 85.42-8.9 85.44-10.45 85.44-11.8L85.44-11.8Q84.94-12.05 84.27-12.15 83.59-12.25 83.09-12.25L83.09-12.25Q82.29-12.25 81.62-12.08 80.94-11.9 80.44-11.38 79.94-10.85 79.64-9.85 79.34-8.85 79.34-7.2L79.34-7.2Q79.34-5.85 79.57-5 79.79-4.15 80.24-3.68 80.69-3.2 81.29-3.05 81.89-2.9 82.64-2.9ZM93.59 0L93.59 0 93.59-23.8Q94.59-24.25 95.94-24.63 97.29-25 98.74-25.25 100.19-25.5 101.54-25.5L101.54-25.5Q104.14-25.5 105.69-24.83 107.24-24.15 107.89-22.7 108.54-21.25 108.54-18.8L108.54-18.8 108.54-0.8Q108.54-0.4 108.34-0.25 108.14-0.1 107.29-0.05 106.44 0 104.34 0L104.34 0 104.34-17.6Q104.34-19.95 103.79-20.95 103.24-21.95 101.39-21.95L101.39-21.95Q100.54-21.95 99.49-21.75 98.44-21.55 97.64-21.05L97.64-21.05 97.64-0.8Q97.64-0.4 97.46-0.25 97.29-0.1 96.44-0.05 95.59 0 93.59 0ZM120.59 0.5L120.59 0.5Q118.94 0.5 117.49 0.13 116.04-0.25 114.89-1.48 113.74-2.7 113.11-5.13 112.49-7.55 112.49-11.6L112.49-11.6Q112.49-16.55 113.51-19.63 114.54-22.7 116.26-24.1 117.99-25.5 120.14-25.5L120.14-25.5Q121.29-25.5 122.19-25.25 123.09-25 123.69-24.5L123.69-24.5 123.69-34.9Q123.69-35.85 124.01-36.23 124.34-36.6 125.24-36.68 126.14-36.75 127.74-36.75L127.74-36.75 127.74-1Q126.54-0.4 124.71 0.05 122.89 0.5 120.59 0.5ZM120.74-3.15L120.74-3.15Q121.59-3.15 122.34-3.33 123.09-3.5 123.69-3.9L123.69-3.9 123.69-21.3Q123.24-21.7 122.71-21.83 122.19-21.95 121.39-21.95L121.39-21.95Q120.59-21.95 119.79-21.55 118.99-21.15 118.34-20.08 117.69-19 117.34-17.07 116.99-15.15 116.99-12.05L116.99-12.05Q116.99-9.2 117.24-7.45 117.49-5.7 117.99-4.78 118.49-3.85 119.16-3.5 119.84-3.15 120.74-3.15ZM156.18 0.3L156.18 0.3Q155.63 0.3 154.98-0.33 154.33-0.95 154.03-2.3L154.03-2.3 153.38-5.65Q152.98-7.55 152.66-9.6 152.33-11.65 152.08-13.6 151.83-15.55 151.66-17.13 151.48-18.7 151.41-19.65 151.33-20.6 151.33-20.6L151.33-20.6 150.73-22.9Q150.68-23.25 150.91-23.78 151.13-24.3 151.58-24.3L151.58-24.3 153.58-24.3 155.53-13.8Q155.88-12.4 156.16-10.8 156.43-9.2 156.63-7.8 156.83-6.4 156.96-5.53 157.08-4.65 157.08-4.65L157.08-4.65 157.33-4.65Q157.48-6.2 157.71-8.28 157.93-10.35 158.26-12.6 158.58-14.85 158.88-16.85L158.88-16.85 160.18-24.1Q160.23-24.55 160.46-24.73 160.68-24.9 161.51-24.95 162.33-25 164.18-25L164.18-25Q164.18-25 163.91-23.65 163.63-22.3 163.16-20.05 162.68-17.8 162.13-15.1 161.58-12.4 161.01-9.73 160.43-7.05 159.93-4.8 159.43-2.55 159.13-1.2 158.83 0.15 158.78 0.15L158.78 0.15Q158.78 0.15 158.11 0.23 157.43 0.3 156.18 0.3ZM145.23 0.3L145.23 0.3Q144.58 0.3 144.16-0.4 143.73-1.1 143.48-2.15L143.48-2.15Q143.13-3.7 142.63-5.88 142.13-8.05 141.61-10.53 141.08-13 140.56-15.43 140.03-17.85 139.61-19.83 139.18-21.8 138.93-22.98 138.68-24.15 138.68-24.15L138.68-24.15Q138.63-24.6 138.86-24.75 139.08-24.9 140.03-24.95 140.98-25 143.08-25L143.08-25 144.58-16.85Q144.98-14.75 145.31-12.6 145.63-10.45 145.86-8.65 146.08-6.85 146.21-5.75 146.33-4.65 146.33-4.65L146.33-4.65 146.63-4.65Q146.73-5.55 146.96-7.13 147.18-8.7 147.48-10.53 147.78-12.35 148.03-13.9L148.03-13.9 149.58-23.45Q149.68-24 149.93-24.15 150.18-24.3 150.93-24.3L150.93-24.3 152.03-24.3Q152.53-24.3 152.48-24.05 152.43-23.8 152.21-23.48 151.98-23.15 151.93-22.9L151.93-22.9 151.83-20.65Q151.83-20.65 151.73-19.73 151.63-18.8 151.46-17.18 151.28-15.55 151.03-13.6 150.78-11.65 150.48-9.58 150.18-7.5 149.73-5.65L149.73-5.65 148.63 0.15Q148.63 0.15 148.03 0.18 147.43 0.2 146.66 0.25 145.88 0.3 145.23 0.3ZM173.23 0.5L173.23 0.5Q171.33 0.5 169.85 0.03 168.38-0.45 167.38-1.8 166.38-3.15 165.88-5.73 165.38-8.3 165.38-12.5L165.38-12.5Q165.38-19.35 167.58-22.43 169.78-25.5 173.68-25.5L173.68-25.5Q176.33-25.5 178.05-24.4 179.78-23.3 180.63-20.5 181.48-17.7 181.48-12.65L181.48-12.65Q181.48-5.65 179.38-2.58 177.28 0.5 173.23 0.5ZM173.33-2.95L173.33-2.95Q174.43-2.95 175.25-3.73 176.08-4.5 176.58-6.6 177.08-8.7 177.08-12.6L177.08-12.6Q177.08-16.6 176.68-18.63 176.28-20.65 175.53-21.35 174.78-22.05 173.53-22.05L173.53-22.05Q172.43-22.05 171.58-21.28 170.73-20.5 170.25-18.4 169.78-16.3 169.78-12.4L169.78-12.4Q169.78-9.35 170.03-7.45 170.28-5.55 170.7-4.58 171.13-3.6 171.83-3.28 172.53-2.95 173.33-2.95ZM185.13 0L185.13 0 185.13-23.85Q186.78-24.6 188.7-25.05 190.63-25.5 192.68-25.5L192.68-25.5Q195.63-25.5 196.98-24.2 198.33-22.9 198.7-20.5 199.08-18.1 199.08-14.75L199.08-14.75 199.08-0.8Q199.08-0.4 198.88-0.25 198.68-0.1 197.83-0.05 196.98 0 195.03 0L195.03 0 195.03-18.6Q195.03-19.85 194.9-20.58 194.78-21.3 194.25-21.63 193.73-21.95 192.58-21.95L192.58-21.95Q191.73-21.95 190.9-21.75 190.08-21.55 189.18-21.1L189.18-21.1 189.18-0.8Q189.18-0.4 188.98-0.25 188.78-0.1 187.95-0.05 187.13 0 185.13 0ZM195.03 0L195.03 0 195.03-21.8Q195.48-22.9 196.8-23.73 198.13-24.55 199.9-25.03 201.68-25.5 203.33-25.5L203.33-25.5Q205.83-25.5 207.03-24.68 208.23-23.85 208.58-22.28 208.93-20.7 208.93-18.45L208.93-18.45 208.93-0.8Q208.93-0.4 208.73-0.25 208.53-0.1 207.68-0.05 206.83 0 204.88 0L204.88 0 204.88-18.5Q204.88-20.3 204.4-21.1 203.93-21.9 202.43-21.9L202.43-21.9Q201.63-21.9 200.78-21.7 199.93-21.5 199.08-20.95L199.08-20.95 199.08-0.8Q199.08-0.4 198.93-0.25 198.78-0.1 197.93-0.05 197.08 0 195.03 0ZM220.92 0.5L220.92 0.5Q219.22 0.5 217.75 0.03 216.27-0.45 215.2-1.7 214.12-2.95 213.55-5.25 212.97-7.55 212.97-11.2L212.97-11.2Q212.97-15.9 213.72-18.75 214.47-21.6 215.72-23.05 216.97-24.5 218.57-25 220.17-25.5 221.82-25.5L221.82-25.5Q224.97-25.5 226.57-23.5 228.17-21.5 228.17-17.45L228.17-17.45Q228.17-15.8 228.05-14.05 227.92-12.3 227.57-10.95L227.57-10.95Q225.87-10.6 223.77-10.45 221.67-10.3 219.77-10.23 217.87-10.15 216.65-10.15 215.42-10.15 215.42-10.15L215.42-10.15 215.47-13.45Q215.47-13.45 216.42-13.43 217.37-13.4 218.75-13.43 220.12-13.45 221.55-13.58 222.97-13.7 223.97-14L223.97-14Q224.12-14.7 224.17-15.5 224.22-16.3 224.22-17L224.22-17Q224.17-19.7 223.6-20.83 223.02-21.95 221.37-21.95L221.37-21.95Q220.52-21.95 219.75-21.48 218.97-21 218.37-19.83 217.77-18.65 217.45-16.6 217.12-14.55 217.12-11.35L217.12-11.35Q217.12-9 217.4-7.45 217.67-5.9 218.25-5.05 218.82-4.2 219.7-3.83 220.57-3.45 221.82-3.45L221.82-3.45Q223.32-3.45 224.8-3.85 226.27-4.25 227.47-5L227.47-5Q227.72-4.4 227.8-3.63 227.87-2.85 227.87-2.25L227.87-2.25Q227.87-1.5 226.92-0.85 225.97-0.2 224.4 0.15 222.82 0.5 220.92 0.5ZM231.72 0L231.72 0 231.72-23.8Q232.72-24.25 234.07-24.63 235.42-25 236.87-25.25 238.32-25.5 239.67-25.5L239.67-25.5Q242.27-25.5 243.82-24.83 245.37-24.15 246.02-22.7 246.67-21.25 246.67-18.8L246.67-18.8 246.67-0.8Q246.67-0.4 246.47-0.25 246.27-0.1 245.42-0.05 244.57 0 242.47 0L242.47 0 242.47-17.6Q242.47-19.95 241.92-20.95 241.37-21.95 239.52-21.95L239.52-21.95Q238.67-21.95 237.62-21.75 236.57-21.55 235.77-21.05L235.77-21.05 235.77-0.8Q235.77-0.4 235.6-0.25 235.42-0.1 234.57-0.05 233.72 0 231.72 0ZM265.47 0.5L265.47 0.5Q263.62 0.5 262.24 0.03 260.87-0.45 259.92-1.78 258.97-3.1 258.49-5.55 258.02-8 258.02-11.95L258.02-11.95Q258.02-16.45 258.82-19.15 259.62-21.85 260.94-23.23 262.27-24.6 263.84-25.05 265.42-25.5 266.97-25.5L266.97-25.5Q268.72-25.5 269.92-24.88 271.12-24.25 271.12-23.25L271.12-23.25Q271.12-22.85 271.04-22.25 270.97-21.65 270.72-21L270.72-21Q270.12-21.35 269.17-21.63 268.22-21.9 267.17-21.9L267.17-21.9Q266.32-21.9 265.44-21.58 264.57-21.25 263.82-20.25 263.07-19.25 262.64-17.25 262.22-15.25 262.22-11.95L262.22-11.95Q262.22-9.3 262.49-7.58 262.77-5.85 263.32-4.88 263.87-3.9 264.72-3.5 265.57-3.1 266.67-3.1L266.67-3.1Q267.87-3.1 268.94-3.48 270.02-3.85 270.67-4.25L270.67-4.25Q270.87-3.6 270.94-3.08 271.02-2.55 271.02-2.05L271.02-2.05Q271.02-1 269.47-0.25 267.92 0.5 265.47 0.5ZM274.36 0L274.36 0 274.36-34.9Q274.36-35.85 274.69-36.23 275.01-36.6 275.91-36.68 276.81-36.75 278.41-36.75L278.41-36.75 278.41-0.8Q278.41-0.4 278.24-0.25 278.06-0.1 277.24-0.05 276.41 0 274.36 0ZM289.91 0.5L289.91 0.5Q288.01 0.5 286.54 0.03 285.06-0.45 284.06-1.8 283.06-3.15 282.56-5.73 282.06-8.3 282.06-12.5L282.06-12.5Q282.06-19.35 284.26-22.43 286.46-25.5 290.36-25.5L290.36-25.5Q293.01-25.5 294.74-24.4 296.46-23.3 297.31-20.5 298.16-17.7 298.16-12.65L298.16-12.65Q298.16-5.65 296.06-2.58 293.96 0.5 289.91 0.5ZM290.01-2.95L290.01-2.95Q291.11-2.95 291.94-3.73 292.76-4.5 293.26-6.6 293.76-8.7 293.76-12.6L293.76-12.6Q293.76-16.6 293.36-18.63 292.96-20.65 292.21-21.35 291.46-22.05 290.21-22.05L290.21-22.05Q289.11-22.05 288.26-21.28 287.41-20.5 286.94-18.4 286.46-16.3 286.46-12.4L286.46-12.4Q286.46-9.35 286.71-7.45 286.96-5.55 287.39-4.58 287.81-3.6 288.51-3.28 289.21-2.95 290.01-2.95ZM307.91 0.5L307.91 0.5Q305.81 0.5 304.78-0.43 303.76-1.35 303.46-3.03 303.16-4.7 303.16-6.95L303.16-6.95 303.16-21.5 299.76-21.5Q299.76-23.1 299.78-23.83 299.81-24.55 300.01-24.78 300.21-25 300.61-25L300.61-25 303.16-25 303.16-32.6Q303.16-33.35 303.48-33.63 303.81-33.9 304.68-33.95 305.56-34 307.21-34L307.21-34 307.21-25 312.31-25Q312.31-23.45 312.28-22.7 312.26-21.95 312.08-21.73 311.91-21.5 311.51-21.5L311.51-21.5 307.21-21.5 307.21-6.95Q307.21-5.9 307.28-4.98 307.36-4.05 307.73-3.53 308.11-3 309.01-3L309.01-3Q309.86-3 310.51-3.18 311.16-3.35 311.91-3.75L311.91-3.75Q312.01-3.35 312.11-2.85 312.21-2.35 312.21-1.7L312.21-1.7Q312.21-0.8 311.53-0.33 310.86 0.15 309.88 0.33 308.91 0.5 307.91 0.5ZM315.61 0L315.61 0 315.61-34.9Q315.61-35.85 315.93-36.23 316.26-36.6 317.13-36.68 318.01-36.75 319.66-36.75L319.66-36.75 319.66-23.55Q320.81-24.55 322.33-25.03 323.86-25.5 325.26-25.5L325.26-25.5Q327.41-25.5 328.53-24.73 329.66-23.95 330.06-22.5 330.46-21.05 330.46-18.9L330.46-18.9 330.46-0.8Q330.46-0.4 330.23-0.25 330.01-0.1 329.13-0.05 328.26 0 326.31 0L326.31 0 326.31-17.8Q326.31-19.45 325.78-20.6 325.26-21.75 323.41-21.75L323.41-21.75Q322.56-21.75 321.56-21.45 320.56-21.15 319.66-20.35L319.66-20.35 319.66-0.8Q319.66-0.4 319.48-0.25 319.31-0.1 318.46-0.05 317.61 0 315.61 0ZM342.3 0.5L342.3 0.5Q340.6 0.5 339.13 0.03 337.65-0.45 336.58-1.7 335.5-2.95 334.93-5.25 334.35-7.55 334.35-11.2L334.35-11.2Q334.35-15.9 335.1-18.75 335.85-21.6 337.1-23.05 338.35-24.5 339.95-25 341.55-25.5 343.2-25.5L343.2-25.5Q346.35-25.5 347.95-23.5 349.55-21.5 349.55-17.45L349.55-17.45Q349.55-15.8 349.43-14.05 349.3-12.3 348.95-10.95L348.95-10.95Q347.25-10.6 345.15-10.45 343.05-10.3 341.15-10.23 339.25-10.15 338.03-10.15 336.8-10.15 336.8-10.15L336.8-10.15 336.85-13.45Q336.85-13.45 337.8-13.43 338.75-13.4 340.13-13.43 341.5-13.45 342.93-13.58 344.35-13.7 345.35-14L345.35-14Q345.5-14.7 345.55-15.5 345.6-16.3 345.6-17L345.6-17Q345.55-19.7 344.98-20.83 344.4-21.95 342.75-21.95L342.75-21.95Q341.9-21.95 341.13-21.48 340.35-21 339.75-19.83 339.15-18.65 338.83-16.6 338.5-14.55 338.5-11.35L338.5-11.35Q338.5-9 338.78-7.45 339.05-5.9 339.63-5.05 340.2-4.2 341.08-3.83 341.95-3.45 343.2-3.45L343.2-3.45Q344.7-3.45 346.18-3.85 347.65-4.25 348.85-5L348.85-5Q349.1-4.4 349.18-3.63 349.25-2.85 349.25-2.25L349.25-2.25Q349.25-1.5 348.3-0.85 347.35-0.2 345.78 0.15 344.2 0.5 342.3 0.5ZM358.45 0.5L358.45 0.5Q355.8 0.5 354.08-0.13 352.35-0.75 352.35-2.05L352.35-2.05Q352.35-2.5 352.5-3.13 352.65-3.75 353.05-4.4L353.05-4.4Q354.15-3.75 355.38-3.45 356.6-3.15 358.05-3.15L358.05-3.15Q359.95-3.15 361.03-3.93 362.1-4.7 362.1-6.25L362.1-6.25Q362.1-7.25 361.68-8.2 361.25-9.15 360.1-10.15L360.1-10.15 355.25-14.3Q353.55-15.7 352.98-17.03 352.4-18.35 352.4-19.6L352.4-19.6Q352.4-21.35 353.28-22.68 354.15-24 355.98-24.75 357.8-25.5 360.55-25.5L360.55-25.5Q363.15-25.5 364.48-25 365.8-24.5 366.33-23.88 366.85-23.25 366.85-22.7L366.85-22.7Q366.85-21.65 365.95-20.65L365.95-20.65Q364.85-21.35 363.65-21.65 362.45-21.95 361.05-21.95L361.05-21.95Q359.25-21.95 358.18-21.33 357.1-20.7 357.1-19.55L357.1-19.55Q357.1-18.9 357.48-18.2 357.85-17.5 359.1-16.45L359.1-16.45 363.75-12.7Q365.4-11.15 366.05-9.75 366.7-8.35 366.7-6.45L366.7-6.45Q366.7-3.15 364.5-1.33 362.3 0.5 358.45 0.5Z" opacity="1" transform="matrix(1,0,0,1,0,0)" fill="#db3022" class="slogan-text-1" data-fill-palette-color="quaternary" id="text-1"></path></svg></g></svg></g></svg></g></svg></g><g></g></svg></g><defs></defs></svg><rect width="356.12052" height="145.8638500461684" fill="none" stroke="none" visibility="hidden"></rect></g></svg></g></svg>